HIERARCHY
ROOT Hips
{
	OFFSET -3.958830 18.904000 13.208200
	CHANNELS 6 Xposition Yposition Zposition Zrotation Yrotation Xrotation 
	JOINT LHipJoint
	{
		OFFSET 0.000000 0.000000 0.000000
		CHANNELS 3 Zrotation Yrotation Xrotation
		JOINT LeftUpLeg
		{
			OFFSET 1.800000 -1.400000 0.085000
			CHANNELS 3 Zrotation Yrotation Xrotation
			JOINT LeftLeg
			{
				OFFSET 2.215000 -6.000000 0.000000
				CHANNELS 3 Zrotation Yrotation Xrotation
				JOINT LeftFoot
				{
					OFFSET 2.500000 -6.900000 0.000000
					CHANNELS 3 Zrotation Yrotation Xrotation
					JOINT LeftToeBase
					{
						OFFSET 0.200000 -0.500000 1.950000
						CHANNELS 3 Zrotation Yrotation Xrotation
						End Site
						{
							OFFSET 0.000000 0.000000 0.000000
						}
					}
				}
			}
		}
	}
	JOINT RHipJoint
	{
		OFFSET 0.000000 0.000000 0.000000
		CHANNELS 3 Zrotation Yrotation Xrotation
		JOINT RightUpLeg
		{
			OFFSET -1.800000 -1.400000 0.085000
			CHANNELS 3 Zrotation Yrotation Xrotation
			JOINT RightLeg
			{
				OFFSET -2.215000 -6.000000 0.000000
				CHANNELS 3 Zrotation Yrotation Xrotation
				JOINT RightFoot
				{
					OFFSET -2.500000 -6.900000 0.000000
					CHANNELS 3 Zrotation Yrotation Xrotation
					JOINT RightToeBase
					{
						OFFSET -0.200000 -0.500000 1.950000
						CHANNELS 3 Zrotation Yrotation Xrotation
						End Site
						{
							OFFSET 0.000000 0.000000 0.000000
						}
					}
				}
			}
		}
	}
	JOINT LowerBack
	{
		OFFSET 0.000000 0.000000 0.000000
		CHANNELS 3 Zrotation Yrotation Xrotation
		JOINT Spine
		{
			OFFSET -0.087000 1.940000 -0.288900
			CHANNELS 3 Zrotation Yrotation Xrotation
			JOINT Spine1
			{
				OFFSET 0.000000 1.950000 0.060000
				CHANNELS 3 Zrotation Yrotation Xrotation
				JOINT Neck
				{
					OFFSET 0.000000 0.000000 0.000000
					CHANNELS 3 Zrotation Yrotation Xrotation
					JOINT Neck1
					{
						OFFSET 0.000000 1.600000 0.340000
						CHANNELS 3 Zrotation Yrotation Xrotation
						JOINT Head
						{
							OFFSET 0.000000 1.667000 -0.240000
							CHANNELS 3 Zrotation Yrotation Xrotation
							End Site
							{
								OFFSET 0.000000 0.000000 0.000000
							}
						}
					}
				}
				JOINT LeftShoulder
				{
					OFFSET 0.000000 0.000000 0.000000
					CHANNELS 3 Zrotation Yrotation Xrotation
					JOINT LeftArm
					{
						OFFSET 2.700000 1.550000 -0.730000
						CHANNELS 3 Zrotation Yrotation Xrotation
						JOINT LeftForeArm
						{
							OFFSET 5.450000 0.000000 0.000000
							CHANNELS 3 Zrotation Yrotation Xrotation
							JOINT LeftHand
							{
								OFFSET 3.450000 0.000000 0.000000
								CHANNELS 3 Zrotation Yrotation Xrotation
								JOINT LeftHandIndex1
								{
									OFFSET 0.750000 0.000000 0.000000
									CHANNELS 3 Zrotation Yrotation Xrotation
									End Site
									{
										OFFSET 0.000000 0.000000 0.000000
									}
								}
							}
						}
					}
				}
				JOINT RightShoulder
				{
					OFFSET 0.000000 0.000000 0.000000
					CHANNELS 3 Zrotation Yrotation Xrotation
					JOINT RightArm
					{
						OFFSET -2.700000 1.550000 -0.730000
						CHANNELS 3 Zrotation Yrotation Xrotation
						JOINT RightForeArm
						{
							OFFSET -5.450000 0.000000 0.000000
							CHANNELS 3 Zrotation Yrotation Xrotation
							JOINT RightHand
							{
								OFFSET -3.450000 0.000000 0.000000
								CHANNELS 3 Zrotation Yrotation Xrotation
								JOINT RightHandIndex1
								{
									OFFSET -0.750000 0.000000 0.000000
									CHANNELS 3 Zrotation Yrotation Xrotation
									End Site
									{
										OFFSET 0.000000 0.000000 0.000000
									}
								}
							}
						}
					}
				}
			}
		}
	}
}
MOTION
Frames: 9
Frame Time: 0.016667
0.019510 17.023650 -2.800690 4.859458 -5.505300 -1.470267 -15.504339 11.715821 5.483682 -2.906429 -10.138992 -41.807710 -9.256356 1.145183 -6.606056 -1.116421 2.538796 3.896375 0.558650 0.345250 0.224040 18.133601 -10.473578 1.712634 -4.058507 1.600244 -15.407156 -2.703624 -3.652459 26.580680 -0.088073 -4.195277 2.992559 0.523390 0.692100 0.330120 -2.839064 -1.869718 -8.116263 -0.502812 4.693815 19.313448 1.563136 5.846946 15.334333 -1.953059 -2.093520 -8.612980 -6.032178 -0.496842 33.120629 -3.069690 -3.007810 -5.589000 19.603137 -34.141760 -7.062713 18.049229 -44.061775 -5.187152 18.074828 -7.757445 -2.960059 -4.473755 3.023331 0.159730 0.566190 -0.315800 0.342820 -15.954228 40.106746 -0.725113 -15.140628 35.157256 -7.293882 -21.535140 9.196468 -4.068035 2.178518 -1.848370 -0.303670 0.422660 0.012630 -0.081500 
-0.024200 16.929370 -2.834100 4.088436 -3.993822 -1.095081 -15.499333 11.563162 5.649820 -3.157212 -10.604885 -42.472604 -9.260127 0.429250 -11.341587 -1.036217 2.615117 3.865594 0.557680 0.350450 0.217150 18.170011 -10.315144 1.767459 -2.513529 2.020727 -16.631289 -2.945284 -3.723859 29.355896 -0.151781 -4.405576 2.909887 0.503370 0.661030 0.328680 -2.913099 -1.940571 -8.307585 0.592251 3.851700 20.381350 0.852507 5.270200 14.787006 -1.993088 -2.481559 -9.321167 -6.735535 -0.299132 32.521915 -2.631360 -3.052760 -6.020820 20.457331 -35.399559 -7.590866 20.212318 -42.902866 -6.561585 17.116274 -5.172244 -2.684983 -4.487569 3.009710 0.167870 0.534780 -0.293180 0.339310 -16.820606 41.214617 -0.947104 -17.615726 33.937244 -8.392583 -20.992053 8.127305 -3.770650 2.242361 -1.825194 -0.278540 0.400290 0.006590 -0.072850 
-0.060990 16.873620 -2.864400 3.935840 -2.554989 -1.432469 -15.514917 11.557963 5.759185 -3.510298 -11.174047 -43.350239 -9.761192 0.343688 -11.418244 -0.999241 2.569681 3.883744 0.565150 0.349660 0.219870 18.163487 -10.202704 1.810478 -1.946861 2.351907 -17.475611 -2.949268 -3.953543 32.139174 -0.227113 -4.677544 2.815234 0.480250 0.640100 0.319880 -2.889552 -2.155314 -8.412083 0.530075 3.348471 21.999501 0.898362 4.803056 14.315691 -2.253574 -2.892655 -9.861064 -7.597022 -0.312024 32.345751 -1.677550 -3.614960 -6.571260 20.019936 -36.533002 -7.748761 22.071331 -41.719738 -7.945941 16.693784 -3.991058 -2.610335 -4.476539 2.970680 0.194140 0.492150 -0.268160 0.349270 -15.901679 42.524821 -0.465391 -20.171014 33.129341 -10.148303 -21.174802 6.788555 -3.656025 2.313658 -1.781243 -0.264090 0.399560 -0.009460 -0.062210 
-0.094220 16.849920 -2.888250 4.640992 -1.563373 -2.019614 -15.565996 11.649210 5.844717 -3.892328 -11.798253 -44.724982 -10.743700 0.891186 -7.290549 -1.036668 2.431901 3.916598 0.541890 0.328130 0.210070 18.106621 -10.161596 1.792089 -2.584744 2.434339 -17.624752 -2.649935 -4.259777 33.514094 -0.251764 -4.845273 2.770207 0.457030 0.628020 0.299800 -2.744019 -2.406082 -8.415952 -0.746048 3.628135 23.303117 1.084397 4.965729 14.284391 -2.047809 -2.850057 -10.411098 -7.608577 -0.328570 32.647889 -1.613400 -3.542180 -6.920930 20.384502 -37.164182 -8.040359 22.998486 -40.733254 -8.668920 16.755592 -3.420155 -2.612922 -4.497338 2.907058 0.219640 0.476010 -0.259670 0.336150 -16.598862 43.437883 -0.544658 -20.812287 31.679611 -10.823864 -21.498859 5.275434 -3.512097 2.366468 -1.736332 -0.273940 0.410810 0.001560 -0.070720 
-0.125990 16.856990 -2.895540 5.018862 -1.062166 -2.226912 -15.595703 11.681687 5.902769 -3.720287 -12.128787 -46.193455 -11.304042 1.681287 -2.193085 -1.041935 2.407202 3.902917 0.543530 0.346100 0.204630 18.083886 -10.150542 1.774780 -2.581580 2.368053 -17.375067 -3.009758 -4.130349 33.467022 -0.246184 -4.850403 2.765772 0.461770 0.638310 0.321960 -2.673239 -2.504439 -8.365161 -1.478661 3.928810 23.369686 1.286010 5.171130 14.588220 -2.074552 -2.609147 -10.310491 -7.237418 -0.199354 32.733504 -2.051970 -3.096510 -6.499870 20.907986 -36.951425 -8.487607 22.585361 -41.315827 -8.333512 15.965828 -2.710256 -2.499428 -4.520522 2.926380 0.185240 0.500720 -0.260670 0.338400 -17.118783 43.247106 -0.630250 -20.492951 31.393791 -10.349203 -21.044341 4.540370 -3.406130 2.378703 -1.750115 -0.251110 0.394800 0.001310 -0.057280 
-0.148950 16.899900 -2.884120 5.155961 -1.086818 -2.652101 -15.589578 11.718438 5.877897 -3.405363 -12.004378 -46.628689 -11.497106 2.546141 2.729164 -1.061404 2.562599 3.834473 0.558030 0.357720 0.242750 18.082568 -10.239024 1.752487 -2.543202 2.062915 -16.081745 -3.391810 -3.860605 31.792142 -0.212042 -4.682969 2.827054 0.481910 0.646810 0.331020 -2.682512 -2.402851 -8.275195 -1.354444 4.273194 23.184006 1.165134 5.684643 15.148311 -1.990542 -2.424213 -9.834829 -6.926245 -0.552879 32.936278 -3.051480 -2.932780 -6.447630 20.993467 -36.470078 -8.808436 22.255902 -43.021378 -7.790646 14.587167 -1.099272 -2.354938 -4.548360 2.884291 0.170890 0.526850 -0.266310 0.329310 -17.468437 42.851960 -0.858280 -19.628911 31.571865 -9.409179 -19.902862 3.340794 -3.191010 2.374912 -1.734863 -0.256770 0.407850 -0.000700 -0.069570 
-0.172660 16.974410 -2.864810 5.589345 -1.476684 -2.882722 -15.577538 11.727880 5.836131 -2.802200 -11.844227 -46.678986 -11.916231 3.484544 7.577761 -1.048487 2.897942 3.692524 0.578830 0.381830 0.276510 18.087288 -10.341586 1.718491 -2.922185 1.655446 -14.588355 -3.320505 -3.712477 29.207426 -0.168969 -4.458077 2.902033 0.510790 0.649650 0.344100 -2.706445 -2.228570 -8.179934 -1.598413 4.790256 22.553835 1.042070 6.268651 15.641985 -2.018278 -2.101913 -9.210088 -6.326921 -0.475246 33.359784 -3.787770 -2.359180 -6.400730 20.855989 -36.208397 -8.932165 21.538939 -44.562643 -6.808936 12.850528 -0.258925 -2.160963 -4.561136 2.866941 0.157370 0.551400 -0.267760 0.322940 -17.333217 42.399002 -1.289222 -17.226947 32.685489 -8.105336 -19.435937 2.285279 -3.109241 2.360127 -1.753262 -0.259370 0.410950 -0.005330 -0.081890 
-0.188800 17.062880 -2.834690 5.955706 -1.191646 -3.030884 -15.572457 11.757575 5.736712 -2.688920 -11.702641 -45.741000 -12.359237 4.276222 11.160143 -1.037166 3.273171 3.549823 0.599940 0.419910 0.297300 18.086357 -10.412199 1.684491 -3.767793 1.125071 -12.704370 -2.285195 -3.901268 25.896528 -0.129721 -4.261759 2.983257 0.552250 0.670240 0.348650 -2.714733 -2.132841 -8.068335 -1.969519 5.140010 21.523143 1.401959 6.534007 16.237118 -2.274869 -1.583775 -8.274698 -5.496196 -0.707194 33.684545 -4.615060 -2.049780 -6.569260 20.215021 -35.349375 -9.046365 20.174797 -46.763464 -5.655254 11.913002 -0.943472 -2.046751 -4.555820 2.878879 0.139570 0.586750 -0.274460 0.327100 -16.254266 41.246077 -0.793567 -14.550008 33.887412 -7.095961 -20.730528 2.510597 -3.402628 2.300273 -1.796155 -0.270300 0.440210 -0.006960 -0.087220 
-0.206710 17.161290 -2.798070 6.337106 -1.082648 -2.750690 -15.567869 11.806628 5.607637 -2.585195 -11.380915 -44.569647 -12.621301 4.966632 13.880927 -1.002635 3.601923 3.425978 0.594660 0.413880 0.292260 18.079007 -10.451894 1.708567 -4.434948 0.799842 -11.473642 -1.298729 -3.995792 22.767350 -0.098850 -4.066533 3.067512 0.555460 0.668580 0.335100 -2.711694 -2.069048 -8.005041 -2.417777 5.535064 20.254677 1.308183 6.896152 16.353590 -2.276371 -1.249391 -7.882026 -5.158349 -0.497755 34.888525 -4.525400 -1.697600 -6.362580 19.067804 -34.661465 -8.508962 16.686112 -48.152343 -4.215195 14.117684 -4.224469 -2.349570 -4.496037 2.938380 0.156750 0.583540 -0.274980 0.330890 -15.115313 40.319122 -0.048996 -10.529664 34.594848 -6.315051 -24.454547 4.572061 -4.204825 2.235193 -1.861889 -0.289620 0.449440 -0.007620 -0.097790 
